<svg width="80" height="24" viewBox="0 0 80 24" fill="none" xmlns="http://www.w3.org/2000/svg">
<path d="M2.51539 23.4832H0L8.22624 0.518679H10.7412L2.51539 23.4832Z" fill="#6AAAE4"/>
<path d="M20.1573 24C17.1695 24 14.8372 23.3218 13.1604 21.9659C11.4836 20.6095 10.633 18.5906 10.6094 15.9092H13.4169C13.4812 19.6737 15.7275 21.5563 20.1573 21.5563C22.0287 21.5563 23.4647 21.1901 24.4642 20.4587C25.4641 19.7269 25.9643 18.6581 25.9643 17.2522C26.0073 16.2425 25.5399 15.2791 24.7212 14.6874C23.8941 14.0743 22.449 13.5427 20.3853 13.091L18.3511 12.6389C16.028 12.0994 14.2875 11.3204 13.128 10.3019C11.969 9.28302 11.393 7.84942 11.4004 6.00159C11.35 4.28135 12.1493 2.64663 13.5381 1.63049C14.9439 0.544998 16.844 0.00226593 19.2383 0.00226593C20.6576 -0.0236225 22.0722 0.172396 23.4314 0.582922C24.4817 0.885733 25.4406 1.44557 26.2209 2.21115C26.858 2.86207 27.3573 3.63505 27.6883 4.48384C28.0096 5.35251 28.1797 6.26925 28.1908 7.19525H25.4156C25.2875 5.55869 24.7554 4.35948 23.8197 3.59668C22.8835 2.83434 21.3566 2.4534 19.2383 2.4534C17.623 2.4534 16.3808 2.76592 15.5116 3.39049C14.6573 3.97947 14.1645 4.96464 14.2038 6.00159C14.1492 6.99831 14.5612 7.96359 15.3193 8.61313C16.0484 9.2377 17.4732 9.78646 19.5943 10.2589L21.6289 10.7115C24.1651 11.2718 25.9925 12.0721 27.1113 13.1127C28.2301 14.1529 28.7881 15.5352 28.7858 17.2596C28.7858 19.3446 28.0235 20.9895 26.4988 22.1938C24.9736 23.3976 22.86 24 20.1573 24Z" fill="#6AAAE4"/>
<path d="M36.6945 21.677C38.0098 21.6978 39.2894 21.2521 40.3074 20.4195C41.3356 19.6026 41.8515 18.4302 41.8538 16.9033V14.9366C41.1997 15.3647 40.4434 15.6107 39.6625 15.6495L37.2437 15.938C35.8434 16.1123 34.8495 16.4331 34.2582 16.907C33.6558 17.4039 33.3262 18.1579 33.371 18.9374C33.3313 19.7025 33.6401 20.444 34.212 20.954C34.7783 21.4348 35.6261 21.677 36.6945 21.677ZM45.2841 21.3779H46.2175V23.4763C45.746 23.5438 45.2693 23.5757 44.7927 23.5725C43.0498 23.5725 42.1146 22.7768 41.9893 21.1856C40.8345 22.9766 39.0305 23.8716 36.5776 23.8716C34.7464 23.8716 33.3142 23.4444 32.2703 22.5965C31.2264 21.7487 30.7063 20.5476 30.7063 19.0017C30.7063 15.9879 32.7594 14.2668 36.866 13.8396L39.2529 13.583C40.9935 13.3884 41.864 12.6246 41.864 11.2923C41.864 10.3658 41.5792 9.69872 41.0092 9.29005C40.4392 8.88368 39.4771 8.67749 38.1235 8.67749C36.6982 8.67749 35.6298 8.91975 35.0099 9.38991C34.3899 9.86007 34.0159 10.7292 33.941 11.9548H31.3512C31.5648 8.27807 33.8213 6.43995 38.1198 6.43995C42.2907 6.43995 44.3762 8.05292 44.3762 11.278V20.58C44.3794 21.1176 44.6822 21.3779 45.2841 21.3779Z" fill="#6AAAE4"/>
<path d="M50.8951 23.4832H48.3159V0.518679H50.8951V23.4832Z" fill="#6AAAE4"/>
<path d="M65.7337 16.2584V6.83891H68.3129V23.4832H65.8618V20.9896C64.5937 22.9109 62.8517 23.8716 60.6359 23.8716C58.7876 23.8716 57.3471 23.3658 56.3143 22.3543C55.281 21.3423 54.7642 19.9175 54.7642 18.0789V6.83891H57.3581V17.8403C57.3581 20.3127 58.6262 21.549 61.1629 21.549C62.3718 21.5531 63.5304 21.0631 64.3694 20.1916C65.2788 19.2915 65.7337 17.9804 65.7337 16.2584Z" fill="#6AAAE4"/>
<path d="M79.4708 6.83878V9.09759H76.0544V19.903C76.0544 20.8507 76.6882 21.3279 77.9568 21.3279H79.4708V23.4905C78.7584 23.5548 78.1459 23.5867 77.6323 23.5867C74.8607 23.5867 73.4748 22.436 73.4748 20.1346V9.09066H70.7314V6.83878H73.4748V2.13992H76.0544V6.83878H79.4708Z" fill="#6AAAE4"/>
</svg>
